<?xml version="1.0" encoding="UTF-8"?>
<svg version="1.1" xmlns="http://www.w3.org/2000/svg" width="500" height="500">
<path d="M0 0 C93.72 0 187.44 0 284 0 C284 21.45 284 42.9 284 65 C250.67 65 217.34 65 183 65 C183.33 65.99 183.66 66.98 184 68 C184.0990426 69.8429583 184.13930217 71.68929592 184.14717102 73.53489685 C184.15790398 75.26152054 184.15790398 75.26152054 184.16885376 77.02302551 C184.17154266 78.28700668 184.17423157 79.55098785 184.17700195 80.85327148 C184.18326789 82.19696223 184.18991481 83.54065125 184.19691467 84.88433838 C184.21793532 89.29657794 184.22831258 93.70881778 184.23828125 98.12109375 C184.24232902 99.64000021 184.24644595 101.15890649 184.25063133 102.67781258 C184.26967562 109.81119179 184.28391039 116.94456069 184.2922433 124.07796043 C184.30202478 132.31537516 184.32837096 140.55252183 184.36874419 148.78984207 C184.39887723 155.15594445 184.41370934 161.52196984 184.41702431 167.88814217 C184.41937731 171.69119384 184.42837015 175.49395887 184.45348549 179.29693413 C184.47672354 182.87324678 184.4810171 186.44908315 184.47072411 190.02545166 C184.46999082 191.9641578 184.48911037 193.90283952 184.50878906 195.84144592 C184.49837334 197.57229935 184.49837334 197.57229935 184.48774719 199.33811951 C184.49013555 200.34082099 184.4925239 201.34352247 184.49498463 202.37660885 C183.8591744 205.74636792 182.62100347 206.85482199 180 209 C177.68521418 210.50516722 175.3843122 211.92920033 173 213.3125 C171.99163086 213.90768433 171.99163086 213.90768433 170.96289062 214.51489258 C167.15358499 216.75914518 163.32548218 218.97097062 159.5 221.1875 C151.44999301 225.8595749 143.52909393 230.74704443 135.5859375 235.59765625 C131.09961187 238.33670073 126.59624281 241.04572736 122.08056641 243.73608398 C120.36024097 244.78115847 118.67482038 245.88345308 117 247 C116.01 247 115.02 247 114 247 C114 247.66 114 248.32 114 249 C111.91796875 250.5078125 111.91796875 250.5078125 109.1875 252.125 C108.29417969 252.66382813 107.40085937 253.20265625 106.48046875 253.7578125 C104 255 104 255 101 255 C101 192.3 101 129.6 101 65 C67.67 65 34.34 65 0 65 C0 43.55 0 22.1 0 0 Z " fill="#F9F9F9" transform="translate(108,134)"/>
</svg>
